# xmcd
#
# Track frame offsets: 
#        150
#        24000
#        54280
#        74710
#        150954
#        206495
#        239589
#
# Disc length: 3460 seconds
#
# Revision: 0
# Processed by: cddbd v1.5.2PL0 Copyright (c) Steve Scherf et al.
# Submitted via: ExactAudioCopy v0.99pb5
#
DISCID=520d8207
DTITLE=The Black Crowes - Sam Houston Coliseum, February 6th
DYEAR=1993
DGENRE=Blues
TTITLE0=No Speak No Slave
TTITLE1=Sting Me
TTITLE2=Hard To Handle
TTITLE3=My Morning Song > Jam
TTITLE4=Thorn In My Pride
TTITLE5=Bad Luck Blue Eyes Goodbye
TTITLE6=Twice As Hard
EXTD=
EXTT0=
EXTT1=
EXTT2=
EXTT3=
EXTT4=
EXTT5=
EXTT6=
PLAYORDER=
